<svg xmlns="http://www.w3.org/2000/svg" viewBox="0 0 640 640" role="img" aria-labelledby="title desc">
  <title id="title">Gödöllői Szív Maraton útvonal körvonala</title>
  <desc id="desc">A GPX fájl alapján generált, földrajzilag arányosított piros útvonalrajz.</desc>
  <path d="M256.5 558.3 L252.8 549.4 L252.7 539.9 L248.2 534.8 L240.4 515.3 L247.4 509.4 L246.4 497.5 L247.3 478.3 L242.3 463.8 L230.0 450.9 L220.7 442.9 L212.2 432.6 L207.7 426.3 L203.0 424.3 L193.7 416.4 L179.4 405.1 L168.0 398.9 L147.7 405.2 L129.7 411.3 L113.3 409.8 L109.5 410.7 L101.0 411.6 L95.9 399.3 L84.8 394.9 L87.0 380.7 L77.4 371.4 L67.0 360.5 L62.9 352.7 L60.0 340.8 L54.0 325.1 L52.0 310.9 L56.2 300.2 L62.5 284.1 L65.5 271.7 L64.5 265.5 L73.0 254.9 L83.1 249.2 L94.6 234.3 L103.4 224.3 L107.0 222.7 L115.3 227.8 L119.6 222.4 L123.3 209.5 L124.2 193.8 L125.5 178.8 L122.3 167.9 L133.5 171.0 L135.3 171.1 L138.3 167.6 L138.3 161.3 L141.8 153.2 L141.3 149.6 L144.2 138.4 L146.0 132.6 L146.3 128.9 L144.4 126.7 L151.5 128.6 L158.5 130.6 L166.5 131.3 L170.7 129.7 L170.7 129.7 L180.5 135.3 L187.4 140.6 L190.4 136.7 L194.9 137.6 L198.7 142.9 L200.3 145.6 L201.5 146.8 L204.6 146.8 L206.6 148.6 L212.4 149.9 L226.4 157.2 L230.9 151.7 L238.5 156.0 L243.9 148.3 L250.8 144.3 L255.7 150.9 L259.1 158.4 L256.8 167.8 L251.1 178.5 L252.4 181.9 L263.0 182.0 L266.2 182.7 L264.8 192.7 L270.6 193.3 L271.7 193.4 L274.2 192.9 L277.7 195.0 L280.6 198.4 L284.6 198.5 L290.3 201.1 L299.0 199.7 L302.2 202.9 L303.8 205.8 L301.5 210.4 L305.3 212.0 L305.9 213.1 L304.7 211.6 L301.3 209.7 L301.9 210.6 L305.5 212.2 L306.7 212.7 L310.2 214.0 L316.3 218.8 L326.7 219.4 L329.7 215.8 L333.2 209.4 L332.3 201.1 L328.7 196.7 L339.4 183.8 L342.8 180.6 L345.9 181.3 L351.3 175.8 L355.0 175.0 L356.2 171.2 L357.4 169.6 L367.3 173.3 L375.1 167.1 L383.8 156.0 L394.4 142.8 L402.3 133.6 L410.7 123.2 L422.6 107.9 L428.7 100.1 L434.6 92.9 L442.4 91.9 L452.8 86.7 L458.6 82.0 L458.8 90.8 L470.7 100.6 L479.3 107.0 L488.1 112.7 L492.2 114.5 L497.4 118.8 L504.2 122.8 L513.0 126.3 L515.1 127.1 L519.6 127.5 L529.9 130.1 L532.5 130.9 L534.6 134.7 L539.9 139.2 L540.8 141.3 L545.3 144.5 L547.7 144.1 L553.7 146.7 L563.1 149.6 L571.3 154.1 L571.7 155.1 L573.9 158.6 L577.1 169.9 L577.7 171.8 L583.4 187.9 L587.1 198.8 L584.9 212.8 L585.4 227.3 L586.0 242.5 L586.4 248.4 L587.6 261.0 L588.0 267.7 L586.4 275.7 L584.0 285.0 L579.1 289.9 L572.3 294.2 L558.4 310.8 L551.6 321.1 L543.4 314.6 L538.3 311.7 L526.8 323.0 L512.5 315.4 L496.4 302.0 L482.4 290.2 L480.0 301.1 L478.6 303.1 L478.2 308.3 L477.8 317.2 L478.0 329.7 L477.7 340.8 L477.5 350.9 L477.4 363.9 L473.0 373.0 L467.0 378.2 L456.6 373.5 L453.3 373.4 L450.3 374.4 L448.3 378.9 L445.3 384.6 L441.5 388.5 L438.3 390.6 L431.2 393.9 L428.1 392.0 L425.0 401.4 L419.5 418.5 L414.7 430.3 L413.3 433.3 L410.3 438.5 L407.8 443.1 L405.0 449.0 L404.9 452.3 L407.6 456.8 L408.0 460.1 L401.1 454.7 L389.7 449.4 L396.4 454.5 L390.3 468.9 L384.7 482.5 L381.1 495.8 L374.3 496.7 L365.5 495.2 L353.2 494.1 L353.2 495.3 L352.0 506.4 L348.7 511.6 L336.6 509.5 L331.4 520.0 L320.5 527.3 L306.5 521.5 L305.1 533.3 L297.3 537.9 L293.9 544.5 L291.6 547.7 L286.0 547.2 L281.2 547.9 L271.2 552.6 L259.9 557.2 L256.6 558.2" fill="none" stroke="#e53935" stroke-width="18" stroke-linecap="round" stroke-linejoin="round" opacity="0.96"/>
  <path d="M256.5 558.3 L252.8 549.4 L252.7 539.9 L248.2 534.8 L240.4 515.3 L247.4 509.4 L246.4 497.5 L247.3 478.3 L242.3 463.8 L230.0 450.9 L220.7 442.9 L212.2 432.6 L207.7 426.3 L203.0 424.3 L193.7 416.4 L179.4 405.1 L168.0 398.9 L147.7 405.2 L129.7 411.3 L113.3 409.8 L109.5 410.7 L101.0 411.6 L95.9 399.3 L84.8 394.9 L87.0 380.7 L77.4 371.4 L67.0 360.5 L62.9 352.7 L60.0 340.8 L54.0 325.1 L52.0 310.9 L56.2 300.2 L62.5 284.1 L65.5 271.7 L64.5 265.5 L73.0 254.9 L83.1 249.2 L94.6 234.3 L103.4 224.3 L107.0 222.7 L115.3 227.8 L119.6 222.4 L123.3 209.5 L124.2 193.8 L125.5 178.8 L122.3 167.9 L133.5 171.0 L135.3 171.1 L138.3 167.6 L138.3 161.3 L141.8 153.2 L141.3 149.6 L144.2 138.4 L146.0 132.6 L146.3 128.9 L144.4 126.7 L151.5 128.6 L158.5 130.6 L166.5 131.3 L170.7 129.7 L170.7 129.7 L180.5 135.3 L187.4 140.6 L190.4 136.7 L194.9 137.6 L198.7 142.9 L200.3 145.6 L201.5 146.8 L204.6 146.8 L206.6 148.6 L212.4 149.9 L226.4 157.2 L230.9 151.7 L238.5 156.0 L243.9 148.3 L250.8 144.3 L255.7 150.9 L259.1 158.4 L256.8 167.8 L251.1 178.5 L252.4 181.9 L263.0 182.0 L266.2 182.7 L264.8 192.7 L270.6 193.3 L271.7 193.4 L274.2 192.9 L277.7 195.0 L280.6 198.4 L284.6 198.5 L290.3 201.1 L299.0 199.7 L302.2 202.9 L303.8 205.8 L301.5 210.4 L305.3 212.0 L305.9 213.1 L304.7 211.6 L301.3 209.7 L301.9 210.6 L305.5 212.2 L306.7 212.7 L310.2 214.0 L316.3 218.8 L326.7 219.4 L329.7 215.8 L333.2 209.4 L332.3 201.1 L328.7 196.7 L339.4 183.8 L342.8 180.6 L345.9 181.3 L351.3 175.8 L355.0 175.0 L356.2 171.2 L357.4 169.6 L367.3 173.3 L375.1 167.1 L383.8 156.0 L394.4 142.8 L402.3 133.6 L410.7 123.2 L422.6 107.9 L428.7 100.1 L434.6 92.9 L442.4 91.9 L452.8 86.7 L458.6 82.0 L458.8 90.8 L470.7 100.6 L479.3 107.0 L488.1 112.7 L492.2 114.5 L497.4 118.8 L504.2 122.8 L513.0 126.3 L515.1 127.1 L519.6 127.5 L529.9 130.1 L532.5 130.9 L534.6 134.7 L539.9 139.2 L540.8 141.3 L545.3 144.5 L547.7 144.1 L553.7 146.7 L563.1 149.6 L571.3 154.1 L571.7 155.1 L573.9 158.6 L577.1 169.9 L577.7 171.8 L583.4 187.9 L587.1 198.8 L584.9 212.8 L585.4 227.3 L586.0 242.5 L586.4 248.4 L587.6 261.0 L588.0 267.7 L586.4 275.7 L584.0 285.0 L579.1 289.9 L572.3 294.2 L558.4 310.8 L551.6 321.1 L543.4 314.6 L538.3 311.7 L526.8 323.0 L512.5 315.4 L496.4 302.0 L482.4 290.2 L480.0 301.1 L478.6 303.1 L478.2 308.3 L477.8 317.2 L478.0 329.7 L477.7 340.8 L477.5 350.9 L477.4 363.9 L473.0 373.0 L467.0 378.2 L456.6 373.5 L453.3 373.4 L450.3 374.4 L448.3 378.9 L445.3 384.6 L441.5 388.5 L438.3 390.6 L431.2 393.9 L428.1 392.0 L425.0 401.4 L419.5 418.5 L414.7 430.3 L413.3 433.3 L410.3 438.5 L407.8 443.1 L405.0 449.0 L404.9 452.3 L407.6 456.8 L408.0 460.1 L401.1 454.7 L389.7 449.4 L396.4 454.5 L390.3 468.9 L384.7 482.5 L381.1 495.8 L374.3 496.7 L365.5 495.2 L353.2 494.1 L353.2 495.3 L352.0 506.4 L348.7 511.6 L336.6 509.5 L331.4 520.0 L320.5 527.3 L306.5 521.5 L305.1 533.3 L297.3 537.9 L293.9 544.5 L291.6 547.7 L286.0 547.2 L281.2 547.9 L271.2 552.6 L259.9 557.2 L256.6 558.2" fill="none" stroke="#fff" stroke-width="6" stroke-linecap="round" stroke-linejoin="round" opacity="0.58"/>
</svg>
