<svg width="160" height="200" viewBox="0 0 160 200" fill="none" xmlns="http://www.w3.org/2000/svg">
<path d="M3.87756 200C2.65404 200 1.72111 199.659 1.07876 198.977C0.436409 198.28 0.115234 197.287 0.115234 195.998V183.857H2.63875V196.18C2.63875 196.726 2.7458 197.12 2.95992 197.363C3.18933 197.605 3.5105 197.726 3.92344 197.726C4.33638 197.726 4.64991 197.605 4.86402 197.363C5.09343 197.12 5.20814 196.726 5.20814 196.18V183.857H7.63989V195.998C7.63989 197.287 7.31871 198.28 6.67636 198.977C6.03402 199.659 5.10108 200 3.87756 200ZM4.10697 180.173H6.85989L4.4052 182.788H2.5011L4.10697 180.173Z" fill="#ECEAEA"/>
<path d="M12.9013 186.13H10.263V183.857H18.063V186.13H15.4248V199.773H12.9013V186.13Z" fill="#ECEAEA"/>
<path d="M27.8912 183.857H31.3095L33.9247 199.773H31.4012L30.9424 196.612V196.658H28.0748L27.6159 199.773H25.276L27.8912 183.857ZM30.6442 194.498L29.5201 186.631H29.4742L28.373 194.498H30.6442Z" fill="#ECEAEA"/>
<path d="M36.2251 197.544L40.9051 186.13H36.4545V183.857H43.6121V186.085L38.9321 197.499H43.6121V199.773H36.2251V197.544Z" fill="#ECEAEA"/>
<path d="M51.6979 183.857H58.5802V186.13H54.2214V190.337H57.6855V192.611H54.2214V197.499H58.5802V199.773H51.6979V183.857Z" fill="#26B99A"/>
<path d="M65.1019 200C63.8784 200 62.9455 199.659 62.3031 198.977C61.6608 198.28 61.3396 197.287 61.3396 195.998V187.631C61.3396 186.343 61.6608 185.357 62.3031 184.675C62.9455 183.978 63.8784 183.629 65.1019 183.629C66.3254 183.629 67.2584 183.978 67.9007 184.675C68.5431 185.357 68.8642 186.343 68.8642 187.631V188.995H66.4784V187.472C66.4784 186.426 66.0425 185.903 65.1707 185.903C64.299 185.903 63.8631 186.426 63.8631 187.472V196.18C63.8631 197.211 64.299 197.726 65.1707 197.726C66.0425 197.726 66.4784 197.211 66.4784 196.18V193.065H65.2166V190.792H68.8642V195.998C68.8642 197.287 68.5431 198.28 67.9007 198.977C67.2584 199.659 66.3254 200 65.1019 200Z" fill="#26B99A"/>
<path d="M71.9756 183.857H78.8579V186.13H74.4991V190.337H77.9632V192.611H74.4991V197.499H78.8579V199.773H71.9756V183.857ZM75.6462 180.173H78.3991L75.9444 182.788H74.0403L75.6462 180.173Z" fill="#26B99A"/>
<path d="M85.1262 200C83.9027 200 82.9774 199.659 82.3503 198.977C81.7233 198.28 81.4098 197.287 81.4098 195.998V195.089H83.7956V196.18C83.7956 197.211 84.2315 197.726 85.1033 197.726C85.5315 197.726 85.8527 197.605 86.0668 197.363C86.2962 197.105 86.4109 196.696 86.4109 196.135C86.4109 195.468 86.2579 194.884 85.9521 194.384C85.6462 193.869 85.0803 193.255 84.2544 192.542C83.2144 191.633 82.488 190.814 82.075 190.087C81.6621 189.344 81.4556 188.51 81.4556 187.586C81.4556 186.328 81.7768 185.357 82.4192 184.675C83.0615 183.978 83.9944 183.629 85.218 183.629C86.4262 183.629 87.3362 183.978 87.9479 184.675C88.575 185.357 88.8885 186.343 88.8885 187.631V188.29H86.5027V187.472C86.5027 186.926 86.3956 186.532 86.1815 186.29C85.9674 186.032 85.6538 185.903 85.2409 185.903C84.3997 185.903 83.9791 186.411 83.9791 187.426C83.9791 188.002 84.1321 188.541 84.438 189.041C84.7591 189.541 85.3327 190.147 86.1585 190.86C87.2138 191.769 87.9403 192.595 88.3379 193.338C88.7356 194.081 88.9344 194.952 88.9344 195.953C88.9344 197.256 88.6056 198.257 87.9479 198.954C87.3056 199.651 86.365 200 85.1262 200Z" fill="#26B99A"/>
<path d="M91.3678 197.544L96.0477 186.13H91.5972V183.857H98.7548V186.085L94.0748 197.499H98.7548V199.773H91.3678V197.544Z" fill="#26B99A"/>
<path d="M104.956 200C103.732 200 102.807 199.659 102.18 198.977C101.553 198.28 101.239 197.287 101.239 195.998V195.089H103.625V196.18C103.625 197.211 104.061 197.726 104.933 197.726C105.361 197.726 105.682 197.605 105.896 197.363C106.126 197.105 106.241 196.696 106.241 196.135C106.241 195.468 106.088 194.884 105.782 194.384C105.476 193.869 104.91 193.255 104.084 192.542C103.044 191.633 102.318 190.814 101.905 190.087C101.492 189.344 101.285 188.51 101.285 187.586C101.285 186.328 101.606 185.357 102.249 184.675C102.891 183.978 103.824 183.629 105.048 183.629C106.256 183.629 107.166 183.978 107.778 184.675C108.405 185.357 108.718 186.343 108.718 187.631V188.29H106.332V187.472C106.332 186.926 106.225 186.532 106.011 186.29C105.797 186.032 105.483 185.903 105.071 185.903C104.229 185.903 103.809 186.411 103.809 187.426C103.809 188.002 103.962 188.541 104.268 189.041C104.589 189.541 105.162 190.147 105.988 190.86C107.043 191.769 107.77 192.595 108.168 193.338C108.565 194.081 108.764 194.952 108.764 195.953C108.764 197.256 108.435 198.257 107.778 198.954C107.135 199.651 106.195 200 104.956 200Z" fill="#26B99A"/>
<path d="M111.702 183.857H118.584V186.13H114.226V190.337H117.69V192.611H114.226V197.499H118.584V199.773H111.702V183.857ZM115.373 180.173H118.126L115.671 182.788H113.767L115.373 180.173Z" fill="#26B99A"/>
<path d="M125.106 200C123.883 200 122.95 199.659 122.307 198.977C121.665 198.28 121.344 197.287 121.344 195.998V187.631C121.344 186.343 121.665 185.357 122.307 184.675C122.95 183.978 123.883 183.629 125.106 183.629C126.33 183.629 127.263 183.978 127.905 184.675C128.547 185.357 128.868 186.343 128.868 187.631V188.995H126.483V187.472C126.483 186.426 126.047 185.903 125.175 185.903C124.303 185.903 123.867 186.426 123.867 187.472V196.18C123.867 197.211 124.303 197.726 125.175 197.726C126.047 197.726 126.483 197.211 126.483 196.18V193.065H125.221V190.792H128.868V195.998C128.868 197.287 128.547 198.28 127.905 198.977C127.263 199.659 126.33 200 125.106 200Z" fill="#26B99A"/>
<path d="M131.98 183.857H134.503V190.337H137.21V183.857H139.734V199.773H137.21V192.611H134.503V199.773H131.98V183.857Z" fill="#26B99A"/>
<path d="M143.104 183.857H149.987V186.13H145.628V190.337H149.092V192.611H145.628V197.499H149.987V199.773H143.104V183.857Z" fill="#26B99A"/>
<path d="M152.47 197.544L157.15 186.13H152.699V183.857H159.857V186.085L155.177 197.499H159.857V199.773H152.47V197.544Z" fill="#26B99A"/>
<path d="M45.4846 59.9836C40.1394 59.823 35.8787 64.3051 35.863 69.391C35.8457 75.0598 40.1295 79.1505 45.4701 79.1707C50.8762 79.1912 54.8299 74.8999 55.0582 69.9932C55.3286 64.1805 50.4476 59.7731 45.4846 59.9836ZM45.4645 106.07C44.2803 104.709 43.1606 103.413 42.03 102.127C41.2964 101.292 40.5431 100.475 39.8051 99.6441C38.2233 97.8629 36.6492 96.0749 35.0647 94.296C34.2443 93.3751 33.4126 92.4641 32.5788 91.5553C30.1577 88.9167 27.7977 86.2354 26.3654 82.8864C25.4996 80.8619 24.8622 78.7758 24.4521 76.6053C24.0336 74.3906 24.0164 72.1603 24.1299 69.9401C24.26 67.3978 24.8535 64.9219 25.7689 62.5383C26.6046 60.3622 27.7066 58.3311 29.1075 56.4614C30.4852 54.6226 32.0929 53.0241 33.9505 51.6764C36.2619 49.9991 38.8266 48.8836 41.6115 48.2869C42.3728 48.1238 43.1573 48.0351 43.9355 47.9941C44.8749 47.9445 45.8192 47.9675 46.7608 47.9852C48.8052 48.0234 50.7453 48.544 52.6355 49.2895C55.8882 50.5724 58.6096 52.6226 60.8702 55.2464C63.5213 58.323 65.2929 61.8902 66.1608 65.8647C66.4843 67.3466 66.6582 68.8712 66.7709 70.3861C66.871 71.7299 66.8892 73.0958 66.7711 74.4366C66.5268 77.2156 65.8485 79.8962 64.7374 82.4711C63.9231 84.358 62.9128 86.117 61.6586 87.7363C61.1053 88.4505 60.5219 89.1433 59.9206 89.8176C58.0646 91.8979 56.1897 93.9613 54.3295 96.038C53.0234 97.4959 51.7255 98.9611 50.431 100.429C48.9644 102.093 47.5061 103.765 46.0431 105.432C45.8683 105.631 45.6872 105.825 45.4645 106.07Z" fill="#3387D0"/>
<path d="M115.237 24.9596C119.988 25.1472 123.635 21.0311 123.799 16.9393C124.013 11.599 119.872 7.79734 115.204 7.84534C110.384 7.89482 106.855 11.5562 106.676 16.1372C106.481 21.1393 110.616 25.1401 115.237 24.9596ZM115.222 42.4824C114.414 41.5623 113.632 40.6688 112.846 39.7788C111.284 38.0095 109.723 36.2396 108.156 34.475C107.391 33.6138 106.629 32.7495 105.839 31.912C104.222 30.1986 102.655 28.4388 101.613 26.3058C100.708 24.455 100.027 22.5138 99.8209 20.442C99.7153 19.3795 99.5784 18.3119 99.5883 17.2478C99.612 14.7202 100.148 12.286 101.148 9.96148C102.095 7.75864 103.393 5.78174 105.148 4.14651C107.359 2.08793 109.922 0.726158 112.942 0.203247C116.119 -0.346848 119.071 0.244274 121.895 1.67891C124.106 2.80238 125.861 4.46161 127.337 6.44022C129.066 8.7589 130.116 11.3801 130.615 14.1974C131.143 17.1855 130.973 20.1615 130.118 23.0988C129.467 25.3353 128.433 27.3656 127.04 29.211C126.434 30.0139 125.711 30.7281 125.043 31.4843C123.493 33.2376 121.946 34.9927 120.396 36.7452C119.714 37.5163 119.03 38.2863 118.34 39.0504C117.314 40.1866 116.281 41.3171 115.222 42.4824Z" fill="#33B990"/>
<path d="M82.3262 149.883C82.3262 145.662 82.3335 141.44 82.3202 137.218C82.3175 136.321 82.0804 135.471 81.4878 134.771C80.5922 133.712 79.3713 133.59 78.1214 133.745C76.9951 133.883 76.1252 134.501 75.7674 135.607C75.537 136.32 75.3738 137.091 75.3712 137.837C75.3436 145.852 75.3453 153.867 75.3695 161.882C75.3716 162.568 75.5601 163.261 75.7186 163.938C76.3168 166.487 80.0019 166.475 81.2209 165.258C82.0013 164.48 82.3122 163.533 82.3175 162.487C82.3386 158.286 82.3262 154.085 82.3262 149.883ZM89.2983 149.881C89.2983 154.064 89.3285 158.248 89.2863 162.431C89.263 164.739 88.6784 166.901 87.2497 168.777C86.0143 170.399 84.4297 171.491 82.4441 171.978C79.7913 172.628 77.1439 172.644 74.5469 171.748C71.5194 170.703 69.6697 168.502 68.9038 165.455C68.5549 164.067 68.4125 162.594 68.404 161.159C68.3572 153.384 68.3501 145.609 68.3994 137.834C68.4162 135.188 69.0148 132.65 70.762 130.556C72.0054 129.066 73.649 128.146 75.5366 127.713C78.4472 127.046 81.3416 127.115 84.0819 128.363C86.0377 129.254 87.4686 130.765 88.3222 132.782C89.0879 134.593 89.3293 136.478 89.3096 138.433C89.2712 142.248 89.2983 146.065 89.2983 149.881Z" fill="#F5F4F4"/>
<path d="M152.904 149.936C152.904 145.753 152.932 141.57 152.878 137.388C152.868 136.64 152.633 135.838 152.3 135.16C151.6 133.736 149.858 133.559 148.622 133.766C147.684 133.923 146.863 134.353 146.485 135.228C146.175 135.944 145.959 136.764 145.955 137.538C145.917 145.291 145.928 153.044 145.937 160.797C145.938 161.584 145.982 162.374 146.061 163.157C146.19 164.432 146.793 165.465 148.04 165.843C149.358 166.243 150.717 166.251 151.828 165.206C152.641 164.442 152.886 163.415 152.893 162.361C152.92 158.219 152.904 154.077 152.904 149.936ZM159.876 149.932C159.876 153.931 159.889 157.93 159.871 161.93C159.86 164.49 159.277 166.883 157.68 168.956C156.426 170.584 154.755 171.56 152.792 172.027C149.863 172.723 146.958 172.606 144.184 171.387C142.589 170.686 141.341 169.503 140.476 167.968C139.398 166.056 138.96 163.977 138.96 161.795C138.96 153.633 138.904 145.47 138.99 137.309C139.02 134.435 139.896 131.764 142.128 129.746C143.434 128.565 144.983 127.829 146.727 127.596C147.882 127.441 149.059 127.316 150.22 127.358C153.019 127.46 155.55 128.307 157.45 130.496C158.656 131.884 159.4 133.535 159.61 135.354C159.796 136.978 159.846 138.623 159.865 140.26C159.902 143.483 159.876 146.708 159.876 149.932Z" fill="#F5F4F4"/>
<path d="M124.507 142.141H117.921C117.921 141.71 117.938 141.29 117.918 140.872C117.845 139.359 117.882 137.827 117.652 136.337C117.19 133.344 113.718 133.063 111.944 134.521C111.303 135.048 111.015 135.877 110.959 136.713C110.878 137.926 110.834 139.145 110.832 140.361C110.821 147.463 110.81 154.565 110.847 161.667C110.852 162.529 111.079 163.406 111.312 164.245C111.632 165.401 112.603 165.856 113.666 166.008C114.599 166.14 115.55 166.075 116.403 165.539C117.342 164.947 117.741 164.008 117.775 163.002C117.88 159.911 117.879 156.815 117.918 153.721C117.919 153.643 117.902 153.565 117.885 153.422C116.92 153.422 115.967 153.395 115.018 153.432C114.494 153.453 114.357 153.265 114.364 152.764C114.388 150.889 114.374 149.014 114.374 147.096H124.526V147.755C124.526 152.245 124.568 156.735 124.508 161.224C124.479 163.452 124.235 165.677 123.15 167.694C121.82 170.168 119.744 171.677 116.99 172.135C115.684 172.352 114.331 172.439 113.01 172.377C110.653 172.267 108.473 171.514 106.761 169.832C105.391 168.487 104.527 166.783 104.246 164.881C104.005 163.251 103.88 161.589 103.871 159.94C103.832 152.593 103.817 145.246 103.875 137.899C103.895 135.413 104.372 132.989 105.929 130.928C107.336 129.066 109.194 127.915 111.51 127.594C112.625 127.44 113.761 127.321 114.882 127.356C117.685 127.444 120.202 128.28 122.106 130.487C123.179 131.73 123.808 133.208 124.123 134.781C124.606 137.19 124.569 139.644 124.507 142.141Z" fill="#F5F4F4"/>
<path d="M20.7937 142.131H14.0724C14.0724 140.481 14.0975 138.855 14.0635 137.231C14.0416 136.184 13.7753 135.198 12.9404 134.475C11.8752 133.553 10.6256 133.562 9.35948 133.867C8.2295 134.14 7.62439 134.985 7.36691 136.051C7.19884 136.748 7.11273 137.481 7.11114 138.198C7.09389 146.115 7.09169 154.033 7.11554 161.95C7.11762 162.637 7.27835 163.338 7.46354 164.006C7.77093 165.113 8.56526 165.763 9.67494 165.969C10.6794 166.155 11.6889 166.102 12.6046 165.594C13.6688 165.003 14.0173 163.921 14.0447 162.845C14.1226 159.787 14.071 156.724 14.0684 153.663C14.0684 153.606 14.0465 153.548 14.0207 153.422C13.1156 153.422 12.2044 153.395 11.2957 153.432C10.7796 153.453 10.6304 153.276 10.6373 152.768C10.663 150.893 10.6475 149.018 10.6475 147.098H20.6776V147.748C20.6776 152.748 20.7503 157.749 20.6497 162.746C20.5916 165.638 19.6711 168.27 17.3879 170.244C16.0311 171.417 14.4149 172.039 12.6655 172.262C11.5856 172.4 10.4778 172.451 9.39202 172.385C6.93316 172.236 4.66476 171.512 2.88821 169.703C1.57781 168.369 0.879489 166.7 0.49394 164.887C0.142274 163.234 0.120377 161.562 0.123068 159.881C0.134689 152.515 0.0878418 145.148 0.151203 137.782C0.171875 135.386 0.679986 133.068 2.11001 131.032C3.46885 129.096 5.36345 128.027 7.6113 127.61C8.87081 127.377 10.1886 127.291 11.4673 127.364C14.1461 127.517 16.5808 128.348 18.3815 130.494C19.4995 131.826 20.2262 133.386 20.4028 135.092C20.6419 137.405 20.671 139.739 20.7937 142.131Z" fill="#F5F4F4"/>
<path d="M51.9468 152.09H42.6021V165.402H54.4011V171.74H35.644V127.987H54.4067V134.295H42.6102V145.692H51.9468V152.09Z" fill="#F5F4F4"/>
<path d="M65.9008 113.909C64.9713 113.847 64.2285 113.809 63.4878 113.746C62.2555 113.641 61.8763 112.739 61.9032 111.617C61.9281 110.578 62.5392 109.882 63.6572 109.849C65.1663 109.804 66.6813 109.879 68.1897 109.97C68.5012 109.989 68.847 110.251 69.0863 110.491C69.6915 111.099 69.5597 111.899 69.415 112.614C69.2763 113.299 68.716 113.673 68.0082 113.742C67.2464 113.815 66.4823 113.864 65.9008 113.909Z" fill="#F57C14"/>
<path d="M78.2588 45.6815C77.5203 45.7866 76.7663 45.0636 76.4774 44.2307C76.2194 43.4873 76.5076 42.855 77.1527 42.2978C78.58 41.065 80.2224 40.5793 82.0859 40.6203C83.2279 40.6454 83.6815 41.315 83.9036 42.2733C84.0609 42.9511 83.4187 44.0436 82.7444 44.2818C81.4719 44.7313 80.1914 45.1589 78.9097 45.5825C78.7043 45.6504 78.4763 45.6502 78.2588 45.6815Z" fill="#F57C14"/>
<path d="M54.0736 113.917C53.3477 113.859 52.6176 113.834 51.8971 113.736C50.9204 113.604 50.3794 112.938 50.3423 111.909C50.3065 110.914 50.788 110.066 51.7048 110.001C53.3313 109.887 54.985 109.842 56.6012 110.015C57.5847 110.12 58.1012 110.813 57.987 112.199C57.9247 112.952 57.2194 113.646 56.3822 113.744C56.001 113.789 55.6199 113.842 55.2371 113.862C54.8516 113.883 54.4641 113.867 54.0776 113.867C54.0762 113.883 54.0749 113.9 54.0736 113.917Z" fill="#F57C14"/>
<path d="M103.09 44.4843C102.326 44.4284 101.552 44.4273 100.799 44.3042C99.627 44.113 99.0512 43.109 99.373 41.9196C99.7142 40.6582 100.195 40.5228 101.445 40.4385C102.712 40.3531 103.994 40.462 105.269 40.5185C106.17 40.5585 106.997 41.3722 107.022 42.2836C107.05 43.2468 106.62 44.1043 105.516 44.3111C105.359 44.3405 105.206 44.4205 105.05 44.4235C104.398 44.4364 103.746 44.4289 103.093 44.4289C103.092 44.4474 103.091 44.4658 103.09 44.4843Z" fill="#F57C14"/>
<path d="M100.409 109.77C101.145 109.83 101.871 109.871 102.592 109.951C103.575 110.061 104.217 110.731 104.211 111.715C104.204 112.882 103.836 113.587 102.782 113.692C101.207 113.848 99.6013 113.804 98.0163 113.713C97.1371 113.662 96.5026 112.717 96.5158 111.815C96.5303 110.818 97.0836 110.107 98.0589 109.961C98.8361 109.845 99.6282 109.83 100.409 109.77Z" fill="#F57C14"/>
<path d="M128.615 74.5105C129.646 74.4587 130.241 75.1483 130.502 76.0047C130.778 76.9112 130.425 77.6502 129.577 78.1398C128.112 78.9861 126.485 79.1433 124.858 79.1302C123.661 79.1206 122.917 78.2475 122.94 77.1165C122.966 75.8816 123.733 75.3715 124.903 75.1702C125.887 75.0008 126.872 74.8367 127.856 74.6662C128.11 74.6222 128.362 74.5628 128.615 74.5105Z" fill="#F57C14"/>
<path d="M103.685 75.1126C104.45 75.1715 105.216 75.2283 105.981 75.29C106.937 75.3671 107.496 76.265 107.524 77.0157C107.561 78.0091 107.078 78.8447 106.154 79.0241C104.492 79.3466 102.807 79.3063 101.146 78.9616C100.101 78.7447 99.7661 77.709 99.8189 76.9425C99.878 76.0859 100.466 75.4671 101.379 75.2878C101.536 75.257 101.69 75.1796 101.847 75.1762C102.458 75.1629 103.069 75.1708 103.681 75.1708C103.682 75.1513 103.684 75.132 103.685 75.1126Z" fill="#F57C14"/>
<path d="M108.142 92.5584C108.753 92.5584 109.364 92.5575 109.976 92.5585C111.02 92.5605 111.766 93.1413 111.923 94.0739C112.101 95.1263 111.59 96.1155 110.555 96.3343C108.941 96.6755 107.284 96.6814 105.667 96.3394C104.453 96.0822 104.102 95.123 104.237 94.0986C104.364 93.1365 105.156 92.5608 106.247 92.5585C106.879 92.5573 107.51 92.5584 108.142 92.5584Z" fill="#F57C14"/>
<path d="M77.408 113.902C76.6451 113.849 75.8821 113.799 75.1195 113.744C74.1941 113.677 73.4389 112.875 73.3971 111.92C73.3523 110.897 73.9769 110.017 74.9634 109.969C76.5268 109.894 78.0978 109.913 79.6631 109.965C80.4376 109.99 81.0922 110.869 81.1029 111.716C81.1161 112.75 80.528 113.572 79.6511 113.743C79.4336 113.786 79.2164 113.852 78.9974 113.859C78.4689 113.877 77.9395 113.865 77.4105 113.865C77.4096 113.877 77.4089 113.889 77.408 113.902Z" fill="#F57C14"/>
<path d="M124.037 105.405C123.803 107.183 123.018 108.92 121.451 110.239C121.252 110.407 120.887 110.426 120.598 110.429C119.171 110.446 118.224 109.104 118.778 107.793C119.292 106.574 119.865 105.377 120.474 104.202C120.959 103.266 121.749 102.904 122.545 103.13C123.549 103.415 124.038 104.085 124.037 105.405Z" fill="#F57C14"/>
<path d="M92.2341 75.1126C92.9811 75.1717 93.7333 75.1865 94.4704 75.3C95.548 75.466 95.9472 76.0996 95.9034 77.4284C95.8755 78.2758 95.1835 79.0437 94.2841 79.0742C92.8499 79.1229 91.4116 79.1241 89.9776 79.0743C89.0522 79.0421 88.3572 78.3013 88.32 77.4615C88.2632 76.1787 88.7258 75.462 89.8095 75.3026C90.6076 75.1851 91.4211 75.1725 92.2341 75.1126Z" fill="#F57C14"/>
<path d="M88.6579 113.917C87.9956 113.862 87.2897 113.816 86.5869 113.741C85.6695 113.644 85.0303 112.89 85.0171 111.919C85.0027 110.852 85.5637 110.011 86.4995 109.968C88.0576 109.895 89.6233 109.905 91.1822 109.967C92.0438 110.002 92.7047 110.896 92.6785 111.782C92.646 112.886 92.0542 113.651 91.1279 113.739C90.323 113.816 89.5149 113.857 88.6579 113.917Z" fill="#F57C14"/>
<path d="M76.5877 53.6822C76.7235 55.1383 75.4885 56.0212 73.9947 55.6388C73.5317 55.5203 73.026 54.915 72.8564 54.4232C72.3199 52.8687 71.9746 51.2669 72.4095 49.596C72.6807 48.5546 73.399 48.1006 74.4565 48.1736C75.7152 48.2606 76.1181 48.7839 76.2179 50.0717C76.3111 51.2775 76.4621 52.4789 76.5877 53.6822Z" fill="#F57C14"/>
<path d="M115.352 75.1044C116.085 75.1743 116.95 75.1709 117.771 75.3567C118.791 75.5874 119.128 76.2891 119.021 77.5768C118.959 78.3207 118.222 79.0516 117.383 79.0759C115.966 79.117 114.547 79.1239 113.131 79.0752C112.169 79.0421 111.504 78.3375 111.438 77.4354C111.349 76.2178 111.788 75.5024 112.872 75.3074C113.644 75.1684 114.443 75.1731 115.352 75.1044Z" fill="#F57C14"/>
<path d="M100.307 94.4896C100.366 95.7508 99.5927 96.4216 98.3349 96.4675C97.1197 96.5118 95.9016 96.4841 94.6849 96.475C93.6111 96.4669 92.6351 95.6918 92.7113 94.406C92.7795 93.2552 93.4733 92.5596 94.6954 92.5585C95.9159 92.5575 97.1362 92.5572 98.3566 92.5588C99.5923 92.5604 100.305 93.2667 100.307 94.4896Z" fill="#F57C14"/>
<path d="M129.406 62.9191C128.805 62.722 127.99 62.4654 127.182 62.188C126.394 61.9174 125.592 61.6723 124.835 61.3289C124.164 61.0245 123.894 60.2525 124.041 59.4163C124.148 58.8046 124.781 58.1246 125.369 58.0276C126.821 57.7876 128.199 58.1154 129.51 58.6977C130.064 58.9441 130.576 59.3283 131.04 59.7281C131.613 60.2226 131.695 60.9538 131.371 61.7075C131.068 62.4142 130.328 62.9324 129.406 62.9191Z" fill="#F57C14"/>
<path d="M82.7218 61.8555C81.5364 61.5976 80.3398 61.3811 79.1692 61.068C78.2953 60.8342 77.7264 59.8108 77.9386 58.9133C78.1417 58.0539 78.6194 57.1824 79.7774 57.2984C80.7121 57.3919 81.6388 57.5657 82.5694 57.7022C83.0433 57.7718 83.5235 57.8101 83.9904 57.9109C85.252 58.1834 85.5605 59.0912 85.4983 59.9079C85.4166 60.9795 84.6735 61.6617 83.6106 61.6964C83.326 61.7057 83.0407 61.6978 82.7558 61.6978L82.7218 61.8555Z" fill="#F57C14"/>
<path d="M81.9812 91.3528C82.024 90.6038 82.3429 90.0574 82.947 89.7711C83.5818 89.4702 84.2536 89.2811 84.9309 89.814C86.1292 90.7567 87.3813 91.6307 88.5794 92.5735C89.2374 93.0913 89.0168 94.6709 88.2505 95.1932C87.5949 95.6402 86.9337 95.7213 86.1582 95.4027C84.6158 94.7691 83.3215 93.8498 82.4085 92.4464C82.1996 92.1252 82.1202 91.7196 81.9812 91.3528Z" fill="#F57C14"/>
<path d="M116.299 61.698C115.667 61.698 115.035 61.6881 114.403 61.7002C113.065 61.7255 112.566 60.9911 112.552 59.7692C112.537 58.5115 113.335 57.7818 114.6 57.7797C115.701 57.7777 116.802 57.7499 117.902 57.7878C118.953 57.8239 119.888 58.3233 120.14 59.2517C120.494 60.5553 119.513 61.6797 118.378 61.6962C117.685 61.7061 116.992 61.698 116.299 61.698Z" fill="#F57C14"/>
<path d="M93.1374 61.6981C92.5064 61.6981 91.8753 61.699 91.2443 61.6978C90.0499 61.6954 89.2869 60.8613 89.437 59.6804C89.6015 58.3869 90.0222 57.8617 91.5701 57.7888C92.6262 57.739 93.6888 57.7386 94.7447 57.7924C95.5606 57.834 96.4668 57.9129 96.8297 58.8044C97.3721 60.1363 97.0416 61.6621 95.0917 61.6962C94.4403 61.7077 93.7889 61.6981 93.1374 61.6981Z" fill="#F57C14"/>
<path d="M91.6151 44.4843C90.8292 44.4251 90.0345 44.4205 89.2597 44.2935C88.1698 44.1148 87.7269 43.3599 87.831 42.0334C87.8952 41.2166 88.7155 40.5198 89.6412 40.5141C90.8512 40.5065 92.0613 40.5116 93.2714 40.5122C94.7896 40.5131 95.407 41.3655 95.4146 42.3462C95.4253 43.7156 94.5967 44.3001 93.3292 44.4213C92.764 44.4754 92.1894 44.4305 91.6191 44.4305C91.6178 44.4485 91.6164 44.4664 91.6151 44.4843Z" fill="#F57C14"/>
<path d="M104.709 61.754C103.887 61.6956 103.047 61.7219 102.246 61.556C101.375 61.3755 100.911 60.6285 100.92 59.736C100.928 58.8286 101.464 58.0764 102.382 57.9289C103.231 57.7925 104.108 57.7809 104.972 57.7916C105.752 57.8013 106.538 57.8662 107.307 57.9963C108.298 58.164 108.74 59.0957 108.621 60.1265C108.519 61.0129 107.76 61.6669 106.787 61.6941C106.096 61.7134 105.404 61.6979 104.713 61.6979L104.709 61.754Z" fill="#F57C14"/>
<path d="M111.912 113.887C111.153 113.838 110.381 113.862 109.639 113.724C108.689 113.547 107.997 112.941 108.133 111.483C108.21 110.655 108.891 109.983 109.841 109.957C111.234 109.919 112.63 109.907 114.021 109.961C115 109.999 115.667 110.79 115.666 111.748C115.665 112.934 115.151 113.593 114.094 113.741C113.734 113.791 113.37 113.819 113.007 113.835C112.644 113.851 112.279 113.838 111.915 113.838L111.912 113.887Z" fill="#F57C14"/>
<path d="M85.5076 81.0159C85.3757 81.3296 85.1647 81.9067 84.8959 82.4552C84.3838 83.4995 83.8557 84.5367 83.3022 85.5595C82.8542 86.3872 81.8189 86.4042 80.9036 85.6964C80.0948 85.0707 80.1202 84.2549 80.2753 83.4002C80.5329 81.9808 81.1097 80.7037 82.0195 79.5744C82.5986 78.856 83.4198 78.5793 84.3129 78.8582C84.9635 79.0614 85.5039 79.9047 85.5076 81.0159Z" fill="#F57C14"/>
<path d="M135.953 68.5177C135.738 69.61 135.607 70.7286 135.281 71.7865C135.028 72.6074 134.132 72.9879 133.346 72.8265C132.173 72.5852 131.681 72.0714 131.679 70.9919C131.678 70.5608 131.823 70.1315 131.85 69.6981C131.899 68.9147 131.937 68.1286 131.929 67.3442C131.914 65.8402 132.614 65.2192 133.802 65.1497C134.916 65.0844 135.614 65.7795 135.771 67.1385C135.823 67.5811 135.779 68.0347 135.779 68.4832C135.837 68.4948 135.895 68.5061 135.953 68.5177Z" fill="#F57C14"/>
<path d="M117.571 93.5382C118.642 93.5635 119.546 94.0667 120.327 94.7054C121.179 95.4016 121.999 96.1788 122.352 97.2926C122.6 98.0759 122.363 98.8569 121.73 99.334C121.137 99.7811 120.408 99.8299 119.733 99.3245C118.515 98.4121 117.348 97.4312 116.154 96.4875C115.558 96.0172 115.499 95.2681 115.804 94.6379C116.098 94.03 116.564 93.5497 117.327 93.5383C117.408 93.5372 117.489 93.5382 117.571 93.5382Z" fill="#F57C14"/>
</svg>
